<?xml version="1.0" encoding="UTF-8"?>
<svg id="Lager_1" xmlns="http://www.w3.org/2000/svg" viewBox="0 0 438.7 78.82">
  <defs>
    <style>
      .cls-1 {
        fill: #57a795;
      }

      .cls-2 {
        fill: #041d36;
      }

      .cls-3 {
        fill: #041e36;
      }

      .cls-4 {
        fill: #0b233b;
      }

      .cls-5 {
        fill: #092139;
      }

      .cls-6 {
        fill: #051e37;
      }

      .cls-7 {
        fill: #072038;
      }

      .cls-8 {
        fill: #fefefe;
      }

      .cls-9 {
        fill: #061f38;
      }
    </style>
  </defs>
  <path class="cls-8" d="M.04,78.04c.25.25.5.5.75.74-.65.14-.9-.1-.75-.74Z"/>
  <path class="cls-8" d="M437.91,78.78c.25-.25.5-.5.75-.74.15.64-.1.89-.75.74Z"/>
  <path class="cls-1" d="M72.24,24.43c-2.98-1.93-5.39-3.71-6.26-7.59-2.32-10.33-15.72-14.41-23.47-7.18-7.45,6.95-14.48,14.34-21.78,21.46-1.51,1.47-1.1,2.32.19,3.58,6.95,6.76,13.75,13.67,20.78,20.35,5.35,5.09,12.51,5.78,18.19,2.12,5.39-3.47,8.02-10.05,6.29-15.76-2.05-6.74-8.38-11.16-15.57-11.04-1.9.03-2.67.53-2.6,2.51.13,3.55.04,7.1.04,11.3-3.65-2.78-6.75-4.95-6.07-9.72.45-3.15-1.31-7.33.65-9.3,2.13-2.14,6.39-.67,9.71-.69,9-.05,16.83,5.72,19.41,14.07,2.75,8.88-.37,17.78-8.13,23.18-7.46,5.19-17.29,5.15-24.34-.77-5.32-4.46-10.07-9.6-15.03-14.47-4.08-4.01-8.08-8.09-12.15-12.11-.97-.96-1.68-1.7-.32-3,9.23-8.87,17.7-18.52,27.49-26.79,6.46-5.45,15.87-6,22.8-1.95,7.99,4.67,11.82,12.72,10.17,21.78Z"/>
  <path class="cls-9" d="M102,24.96c8.57-4.73,16.47-4.81,23.7,1.25,7.11,5.95,8.35,16.87,3.11,24.59-5.09,7.5-15.58,10.22-23.91,6.28-1.07-.51-2.43-3.09-3.63.49-.48,1.44-3.69.62-5.6.45-1.9-.18-1.04-1.97-1.04-3.01-.06-15.94.07-31.89-.13-47.83-.04-3.39,1.75-3.04,3.92-3.06,2.11-.03,3.81-.24,3.66,2.91-.28,5.79-.08,11.61-.08,17.95ZM124.58,39.94c0-6.29-5.05-11.45-11.26-11.5-6.36-.05-11.29,4.89-11.31,11.33-.02,6.63,4.92,11.67,11.41,11.63,6.31-.04,11.17-5.02,11.17-11.46Z"/>
  <path class="cls-5" d="M278.89,24.9c0-6.34.18-12.25-.07-18.14-.13-3.09,1.67-2.72,3.53-2.63,1.81.09,4-.83,3.97,2.62-.14,16.19-.05,32.37-.09,48.56,0,.97.62,2.63-1.12,2.6-1.99-.03-5.09,1.19-5.79-.69-1.19-3.25-2.35-.67-3.08-.31-10.69,5.2-23.43.01-26.53-11.07-2.18-7.8-.51-14.79,5.95-20.04,6.31-5.13,13.36-5.44,20.66-2.06.34.16.64.39.97.55.32.15.66.26,1.6.62ZM256.15,39.82c-.05,6.8,4.67,12.1,10.85,12.2,6.78.1,11.84-5.03,11.82-12.01-.02-6.67-4.93-11.82-11.25-11.79-6.49.02-11.38,4.98-11.42,11.6Z"/>
  <path class="cls-7" d="M245.1,40.54c0,4.95.04,9.89-.03,14.84-.01.96.65,2.67-1.06,2.63-2.05-.05-5.03,1.39-5.97-.96-.99-2.47-1.77-.86-2.58-.47-7.88,3.83-15.37,3.18-21.91-2.58-5.87-5.17-7.08-11.97-5.1-19.33,2.89-10.74,15.59-16.11,26.31-11.26,1.06.48,2.46,3.01,3.52-.59.37-1.25,3.96-.68,5.98-.3,1.64.31.79,2.09.81,3.19.09,4.95.04,9.89.04,14.84ZM237.59,41.07c.05-6.77-4.64-11.88-11.03-12.02-6.41-.14-11.69,5.05-11.64,11.43.05,6.52,5.11,11.59,11.51,11.55,6.34-.04,11.12-4.73,11.16-10.96Z"/>
  <path class="cls-2" d="M372.03,41.57c0,4.7-.19,9.4.07,14.08.16,2.88-1.54,2.6-3.26,2.44-1.69-.15-4.1,1.14-4.07-2.44.12-16.31.13-32.63,0-48.94-.03-3.51,2.26-2.38,4.01-2.57,2.13-.23,3.39.06,3.33,2.84-.2,9.38-.07,18.76-.07,29.12,3.49-3.15,6.75-5.57,9.33-8.56,4.17-4.83,9.19-6.26,15.69-4.8-5.89,5.25-11.66,10.4-17.33,15.46,6.31,6.53,12.59,13.04,19.21,19.9-4.39-.28-8.7,1.3-12.38-3.12-4.16-5-9.04-9.42-13.61-14.1-.3.23-.61.46-.91.7Z"/>
  <path class="cls-3" d="M183.93,36.07c3.88-3.53,7.55-6.17,10.3-9.54,3.95-4.83,8.93-4.5,14.8-3.99-5.33,4.79-10.25,9.41-15.41,13.74-2.02,1.7-2.07,2.54-.17,4.41,5.72,5.63,11.19,11.51,16.73,17.27-4.52.43-9.01.7-12.75-3.98-3.75-4.69-8.38-8.7-12.62-13.02-.3.15-.59.3-.89.45,0,4.75-.18,9.51.06,14.25.17,3.31-2.03,2.36-3.69,2.41-1.75.05-3.62.65-3.59-2.51.15-16.32.14-32.64.01-48.97-.02-3.2,1.98-2.41,3.71-2.48,1.87-.07,3.63-.44,3.57,2.63-.19,9.47-.07,18.94-.07,29.3Z"/>
  <path class="cls-6" d="M346.47,41.66c-3.75,0-7.5.11-11.24-.04-2.16-.09-2.54.56-1.99,2.54,2.27,8.2,12.58,11.01,19.77,5.37.73-.57,1.23-2.25,2.55-1.23,1.35,1.05,2.56,2.35,3.57,3.73.52.72-.58,1.22-1.07,1.7-5.73,5.59-12.66,6.24-19.8,3.9-6.61-2.16-10.89-6.98-12.04-13.89-2.3-13.84,7.72-24.29,20.63-21.78,7.97,1.55,14.17,9.68,13.9,17.94-.06,1.88-.93,1.9-2.3,1.88-3.99-.04-7.99-.01-11.99-.01v-.11ZM342.76,35.6c2.62,0,5.24-.1,7.86.03,2.14.1,2.46-.88,1.56-2.4-1.96-3.28-4.81-5.32-8.83-5.19-4.03.14-7.14,1.87-9.09,5.47-.86,1.6-.43,2.18,1.4,2.11,2.37-.1,4.74-.02,7.11-.02Z"/>
  <path class="cls-7" d="M153.38,58.6c-10.21-.06-18.47-8.31-18.48-18.46,0-10.52,8.12-18.58,18.68-18.53,10.08.05,18.48,8.23,18.49,18.03.01,10.72-8.18,19.03-18.7,18.97ZM153.72,28.34c-6.18-.18-11.38,5.04-11.51,11.55-.14,6.77,4.41,11.74,10.99,11.98,6.21.23,11.47-4.65,11.75-10.92.32-6.93-4.58-12.42-11.23-12.61Z"/>
  <path class="cls-7" d="M401.3,31.04c0-5.31.17-10.63-.06-15.94-.15-3.55,2.26-2.44,3.99-2.52,1.75-.08,3.59-.68,3.55,2.53-.09,7.21.13,7.21,7.62,7.22,3.42,0,4.98,2.45,3.65,5.63-.21.5-.46.85-1.01.9-.5.04-1,0-1.49.05-2.91.33-6.81-1.39-8.48.76-1.4,1.8-.37,5.45-.4,8.29-.02,2.35-.03,4.7-.02,7.04.04,5.21,1.99,7.38,7.31,6.78,4.44-.5,3.32,2.83,3.78,4.69.64,2.59-1.96,1.99-3.26,2.12-9.75,1-15.17-3.86-15.19-13.48-.01-4.7,0-9.39,0-14.09Z"/>
  <path class="cls-5" d="M312.69,26.11c3.39-3.49,7.05-4.91,11.41-4.6,1.59.11,2.26.59,1.91,2.25-.54,2.52.15,5.22-4.49,5.06-5.63-.19-8.8,3.99-8.8,9.6,0,5.56-.25,11.13.09,16.67.21,3.37-1.61,3-3.8,3.1-2.49.11-3.79-.17-3.72-3.28.23-9.63.04-19.26.14-28.89.01-1.37-1.25-3.9,1.96-3.64,2.3.19,5.91-1.64,5.31,3.75Z"/>
  <path class="cls-4" d="M299.28,40.17c0,5.07-.14,10.15.06,15.21.1,2.41-.79,3.16-2.97,2.73-1.71-.34-4.48,1.41-4.44-2.48.11-10.27.11-20.54-.08-30.8-.07-3.59,2.33-2.34,4.03-2.47,1.83-.15,3.67-.56,3.47,2.6-.31,5.05-.08,10.14-.08,15.21Z"/>
  <path class="cls-5" d="M295.13,17.27c-2.24-.03-4.27-1.89-4.19-4.73.08-2.73,1.63-4.32,4.37-4.48,2.78-.17,5.46,2.15,5.22,4.59-.26,2.63-1.4,4.74-5.4,4.62Z"/>
</svg>