<?xml version="1.0" encoding="UTF-8"?>
<svg id="Lager_1" xmlns="http://www.w3.org/2000/svg" viewBox="0 0 311.85 173.19">
  <defs>
    <style>
      .cls-1 {
        fill: none;
      }
    </style>
  </defs>
  <path d="M142.44,69.99c1.55-4.54,3.16-6.54,4.55-8.5,7.66-10.81-3.41-15.29-14.83-9.35l-.3-4.58-.2-4.52,16.08.3,31.25.7c-.02,1.38-.65,4.65-1.02,6.46-.17.84-.19,1.7-.06,2.54l.21,1.34c.15.93.4,1.84.77,2.7,1.91,4.47,3.43,9.15,5.11,13.71,1.35,2.35,9.38,26.64,9.38,26.64.98-9.56,1.58-44.74,1.58-44.74l-14.25-.12c-.26-4.3-1.4-8.37,4.74-8.42,12.54.55,20.62.04,20.62.04-5.08,47.7-9.56,74.36-9.98,106.04,0,.66-2.37.71-2.45.08l-.03-1.01c-.64-20.75-3.38-42.35-10.75-62.26-3.52-10.28-5.82-24.1-15.28-30.11-2.1-1.34-4.65-1.24-7.05-.56-5.62,1.58-9.17,4.97-9.17,4.97l-4.58,4.05-4.35,4.6Z"/>
  <path d="M143.3,70.56l-.32.19,1.91-1.91,2.72-2.18c11.41-8.66,29.97,6.21,26.92,22.27-4.29,22.58-41.46,31.27-65.16,23.09-.03,0-.05-.03-.08-.04-31.03-18.04,12.6-82.97-12.56-96.29-.09-.05-.19-.08-.29-.1-6.62-1.23-4.97-1.77-4.6-8.02,0-.07.02-.14.04-.2.64-2.22-.37-6.54,2.1-7.32.08-.03.17-.04.26-.04,4.7-.16,9.63,1.77,12.78,5.26,9.56,10.79,8.17,21.61,5.31,34.49-2.53,11.37-5.45,26.77-7.13,38.91-6.18,44.71,48.99,43.71,60.7,14.89,2.58-6.34,2.99-14.52-2.81-20.19-4.46-4.36-7.58-5.68-13.59-4.92-1.33.17-5.02,1.47-6.19,2.12Z"/>
  <path d="M197.78,10.35c.22.48-.07.87-.19,1.26-.46,1.43-.84,2.89-1.41,4.28-.77,1.87-1.81,3.59-2.9,5.27-5.9,9.11-15.92,10.32-25.27,13.19-2.52.43-5.31,7.85-4.89,4.62,2.91-19.41,19.11-7.76,31.04-23.36.89-1.02,1.66-2.13,2.41-3.26.43-.65.96-1.22,1.21-1.99h0Z"/>
  <path d="M158.4,3.46c.31.29.38.52.21.94-.16.41-.1.92-.17,1.39-.05.34-.09.68-.22.99-.58,1.33-.77,2.81-1.5,4.09-.59,3.16-5.47,4.96-3.47,8.14.43,1.81,4.69,4.68,5.36,2.43-3.41-2.36-3.59.57-2.16-5.75,2.61-6.73,12.46,1.79,6.98,9.79-12.25,11.87-17.26-7.18-8.72-15.27,1.33-1.31,2.58-2.7,3.15-4.54.18-.59.1-1.25.36-1.83.05-.12.05-.27.19-.39h0Z"/>
  <path d="M152.93,39.74c-1.67.53-1.59-8.62-8.9-9.39-12.47-.31-21.03-10.97-22.4-22.58,9.21,23.77,24.57,5.2,31.3,31.98Z"/>
  <path d="M117.18,57.99s2.66-7.93,6.59-5.12,39.03,37.8,13.78,57.42c-17.79,13.83-43.42,10.2-43.42,10.2,0,0,52.48-2.82,48.52-33.41-2.95-22.8-25.47-29.09-25.47-29.09Z"/>
  <g>
    <rect class="cls-1" x="0" y="27.99" width="114.89" height="50.55"/>
    <path d="M5.33,29.1s-.12.04-.22.11c-.1.07-.19.2-.29.4-.1.19-.17.47-.23.83-.06.36-.09.84-.09,1.44v21.82h4.07c.89-.1,1.7-.23,2.43-.4.73-.17,1.4-.37,2.02-.59.61-.23,1.19-.49,1.73-.77s1.09-.6,1.64-.94h.32v3.06h-3.1l-.94-.04H1.08v-.32s.12-.03.22-.09c.1-.06.19-.19.27-.4.08-.2.16-.49.23-.85.07-.36.11-.84.11-1.44v-19.04c0-.6-.04-1.08-.11-1.44-.07-.36-.15-.64-.23-.83-.08-.19-.17-.32-.27-.4-.1-.07-.17-.11-.22-.11v-.32h4.25v.32Z"/>
    <path d="M23.08,29.07c-.07,0-.16.04-.25.11-.1.07-.19.2-.27.4-.08.19-.16.47-.23.83-.07.36-.11.84-.11,1.44v19.08c0,.58.04,1.05.11,1.42.07.37.15.65.23.85.08.19.17.32.27.4.1.07.18.11.25.11v.32h-4.21v-.32s.12-.04.22-.11c.1-.07.19-.2.27-.4.08-.19.16-.47.23-.85.07-.37.11-.85.11-1.42v-19.08c0-.6-.04-1.08-.11-1.44-.07-.36-.15-.64-.23-.83-.08-.19-.17-.32-.27-.4-.1-.07-.17-.11-.22-.11v-.32h4.21v.32Z"/>
    <path d="M46.37,45.77c0-.79-.12-1.42-.36-1.87-.24-.46-.54-.8-.9-1.03-.36-.23-.77-.38-1.22-.45-.46-.07-.91-.11-1.37-.11h-2.3v-.32h9.54v.32c-.19,0-.33.11-.41.32-.08.22-.14.49-.18.81-.04.32-.07.67-.09,1.03-.02.36-.07.68-.14.97-.43,1.94-1.24,3.56-2.43,4.86s-2.57,2.27-4.14,2.92c-1.57.65-3.25.95-5.02.92-1.78-.04-3.47-.4-5.08-1.1-1.61-.7-3.05-1.74-4.32-3.13-1.27-1.39-2.18-3.13-2.74-5.22-.46-1.7-.56-3.4-.32-5.08.24-1.68.77-3.23,1.58-4.64.82-1.42,1.89-2.65,3.22-3.69,1.33-1.04,2.85-1.79,4.55-2.25,1.22-.34,2.45-.48,3.67-.43,1.22.05,2.4.25,3.53.61,1.13.36,2.19.87,3.19,1.53,1,.66,1.88,1.45,2.65,2.36l-.86,3.17h-.32c-.55-1.1-1.24-2.15-2.05-3.15-.82-1-1.73-1.83-2.74-2.5-1.01-.67-2.1-1.14-3.28-1.4-1.18-.26-2.41-.23-3.71.11-1.56.41-2.84,1.14-3.85,2.2-1.01,1.06-1.78,2.27-2.3,3.65-.53,1.38-.82,2.85-.88,4.41-.06,1.56.09,3.04.45,4.43.48,1.78,1.19,3.29,2.14,4.54.95,1.25,2.02,2.25,3.22,3.01,1.2.76,2.48,1.26,3.83,1.51,1.36.25,2.68.26,3.98.02,1.22-.26,2.2-.67,2.92-1.21.72-.54,1.27-1.15,1.64-1.84s.62-1.4.74-2.14c.12-.74.18-1.45.18-2.12Z"/>
    <path d="M69.62,29.07s-.12.04-.22.11c-.1.07-.19.2-.29.4-.1.19-.17.47-.23.83-.06.36-.09.84-.09,1.44v19.08c0,.58.03,1.05.09,1.42.06.37.14.65.23.85.1.19.19.32.29.4.1.07.17.11.22.11v.32h-4.25v-.32s.12-.04.22-.11c.1-.07.19-.2.27-.4.08-.19.16-.47.23-.85.07-.37.11-.85.11-1.42v-11.74h-11.84v11.74c0,.58.03,1.05.09,1.42.06.37.14.65.23.85.1.19.19.32.29.4.1.07.17.11.22.11v.32h-4.18v-.32s.12-.04.22-.11c.1-.07.19-.2.27-.4.08-.19.16-.47.23-.85.07-.37.11-.85.11-1.42v-19.08c0-.6-.04-1.08-.11-1.44-.07-.36-.15-.64-.23-.83-.08-.19-.17-.32-.27-.4-.1-.07-.17-.11-.22-.11v-.32h4.18v.32s-.12.04-.22.11c-.1.07-.19.2-.29.4-.1.19-.17.47-.23.83-.06.36-.09.84-.09,1.44v7.02h11.84v-7.02c0-.6-.04-1.08-.11-1.44-.07-.36-.15-.64-.23-.83-.08-.19-.17-.32-.27-.4-.1-.07-.17-.11-.22-.11v-.32h4.25v.32Z"/>
    <path d="M92.27,31.8h-.32c-.53-.58-1.04-1.04-1.55-1.4-.5-.36-1.08-.64-1.73-.83-.65-.19-1.4-.32-2.27-.4-.86-.07-1.91-.11-3.13-.11v21.85c0,.58.03,1.05.09,1.42s.14.65.23.85c.1.19.19.32.29.4.1.07.17.11.22.11v.32h-4.18v-.32s.12-.04.22-.11c.1-.07.19-.2.27-.4.08-.19.16-.47.23-.85.07-.37.11-.85.11-1.42v-21.85c-1.22,0-2.27.04-3.13.11-.86.07-1.61.2-2.25.4-.64.19-1.21.47-1.71.83-.5.36-1.02.83-1.55,1.4h-.32v-3.06h20.48v3.06Z"/>
  </g>
  <g>
    <rect class="cls-1" x="86.66" y="133.08" width="103.23" height="39.33"/>
    <path d="M87.74,159.11v-.32s.12-.04.22-.11c.1-.07.19-.2.27-.4.08-.19.16-.47.23-.85.07-.37.11-.85.11-1.42v-19.08c0-.6-.04-1.08-.11-1.44-.07-.36-.15-.64-.23-.83-.08-.19-.17-.32-.27-.4-.1-.07-.17-.11-.22-.11v-.32h.32c1.08-.02,2.2-.1,3.37-.22,1.16-.12,2.26-.18,3.29-.18,1.82,0,3.36.15,4.61.45,1.25.3,2.26.71,3.02,1.24.77.53,1.32,1.16,1.66,1.89.34.73.5,1.53.5,2.39,0,.74-.12,1.43-.36,2.07-.24.64-.63,1.21-1.17,1.71-.54.5-1.25.93-2.13,1.28-.88.35-1.96.59-3.23.74,1.27.14,2.46.39,3.56.74,1.1.35,2.05.81,2.86,1.39s1.44,1.26,1.9,2.05c.47.79.7,1.7.7,2.74,0,1.42-.32,2.57-.97,3.47-.65.9-1.51,1.61-2.6,2.12-1.09.52-2.35.88-3.79,1.08-1.44.2-2.96.31-4.56.31h-6.97ZM94.7,145.04v.04c.79,0,1.62-.08,2.47-.25.85-.17,1.64-.47,2.35-.9.71-.43,1.3-1.01,1.77-1.75.47-.73.7-1.65.7-2.75s-.23-2.02-.7-2.75c-.47-.73-1.06-1.31-1.77-1.75-.71-.43-1.49-.74-2.35-.92-.85-.18-1.68-.27-2.47-.27-.55,0-1.14.02-1.75.07-.61.05-1.23.1-1.86.14v11.09h3.61ZM104.12,152.13c0-1.08-.2-2-.61-2.75-.41-.76-.92-1.38-1.53-1.87-.61-.49-1.3-.88-2.06-1.17-.76-.29-1.48-.5-2.17-.65-.69-.14-1.29-.23-1.82-.27-.53-.04-.89-.05-1.08-.05h-3.75v13.43h3.61c1.76-.02,3.32-.26,4.69-.72.58-.19,1.15-.45,1.71-.77.56-.32,1.07-.72,1.52-1.19.45-.47.81-1.03,1.08-1.69.28-.66.42-1.42.42-2.29Z"/>
    <path d="M108.73,149.75c-.46-1.7-.56-3.4-.31-5.08.25-1.68.79-3.23,1.6-4.64.82-1.42,1.88-2.65,3.2-3.69,1.32-1.04,2.83-1.79,4.54-2.25,1.7-.46,3.4-.56,5.08-.32,1.68.24,3.23.77,4.64,1.58,1.42.82,2.65,1.89,3.69,3.22s1.79,2.85,2.25,4.55c.46,1.7.56,3.39.32,5.06-.24,1.67-.77,3.21-1.58,4.63-.82,1.42-1.89,2.65-3.22,3.71s-2.85,1.81-4.55,2.27c-1.7.46-3.39.56-5.06.32s-3.21-.77-4.63-1.6-2.65-1.9-3.71-3.22c-1.06-1.32-1.81-2.83-2.27-4.54ZM130.87,143.81c-.36-1.39-.95-2.75-1.78-4.07-.83-1.32-1.81-2.45-2.95-3.38-1.14-.94-2.42-1.6-3.83-2-1.42-.4-2.89-.39-4.43.02-1.56.41-2.85,1.14-3.87,2.2-1.02,1.06-1.79,2.27-2.32,3.65-.53,1.38-.82,2.85-.86,4.41-.05,1.56.11,3.04.47,4.43.38,1.39.98,2.74,1.8,4.05.82,1.31,1.8,2.43,2.95,3.37,1.15.94,2.43,1.61,3.83,2.02,1.4.41,2.89.4,4.45-.04,1.54-.41,2.81-1.14,3.83-2.2,1.02-1.06,1.79-2.27,2.32-3.65.53-1.38.82-2.84.88-4.39.06-1.55-.1-3.02-.49-4.41Z"/>
    <path d="M136.06,133.84h3.35l.04,3.82c.41-1.2,1.15-2.15,2.21-2.84,1.07-.7,2.29-1.12,3.65-1.26s2.79,0,4.27.45c1.48.44,2.83,1.19,4.07,2.25,1.24,1.06,2.25,2.43,3.04,4.12.79,1.69,1.19,3.73,1.19,6.1s-.38,4.32-1.13,5.98c-.76,1.66-1.81,3.01-3.15,4.05s-2.93,1.81-4.75,2.29c-1.82.48-3.8.72-5.94.72-1.06,0-2.14-.06-3.24-.18-1.1-.12-2.2-.19-3.28-.22h-.32v-.32s.12-.04.22-.11c.1-.07.19-.2.27-.4.08-.19.16-.47.23-.85.07-.37.11-.85.11-1.42v-19.08c0-.6-.04-1.08-.11-1.44-.07-.36-.15-.64-.23-.83-.08-.19-.17-.32-.27-.4-.1-.07-.17-.11-.22-.11v-.32ZM155.35,146.48c0-2.47-.39-4.56-1.17-6.26s-1.77-3.04-2.96-4.01c-1.19-.97-2.47-1.6-3.84-1.89-1.37-.29-2.65-.27-3.84.05s-2.18.94-2.96,1.84c-.78.9-1.17,2.06-1.17,3.47v19.3c.6.05,1.19.1,1.77.14s1.14.07,1.7.07c1.97,0,3.73-.29,5.27-.88,1.54-.59,2.84-1.43,3.91-2.52,1.07-1.09,1.89-2.42,2.45-4,.57-1.57.85-3.34.85-5.31Z"/>
    <path d="M170.26,150.11v5.9c0,.6.03,1.08.09,1.44.06.36.14.64.23.85.1.2.19.34.29.4.1.06.17.09.22.09v.32h-4.18v-.32s.12-.03.22-.09c.1-.06.19-.19.27-.4.08-.2.16-.49.23-.85.07-.36.11-.84.11-1.44v-5.26l-6.48-11.99c-.41-.6-.8-1.18-1.19-1.73-.38-.55-.74-1.04-1.06-1.48-.32-.43-.63-.78-.92-1.04s-.54-.4-.76-.4v-.32h5.36v.32c-.14,0-.18.29-.11.86.07.58.35,1.36.83,2.34l6.66,12.42,5.94-12.13c.07-.17.19-.44.34-.83.16-.38.28-.77.36-1.17s.08-.74,0-1.04c-.08-.3-.33-.45-.74-.45v-.32h3.1v.32c-.26,0-.64.3-1.13.9-.49.6-1.13,1.7-1.93,3.31l-5.76,11.77Z"/>
  </g>
  <g>
    <rect class="cls-1" x="210.59" y="82.13" width="101.26" height="36.89"/>
    <path d="M224.6,99.16v5.9c0,.6.03,1.08.09,1.44.06.36.14.64.23.85.1.2.19.34.29.4.1.06.17.09.22.09v.32h-4.18v-.32s.12-.03.22-.09c.1-.06.19-.19.27-.4.08-.2.16-.49.23-.85.07-.36.11-.84.11-1.44v-5.26l-6.48-11.99c-.41-.6-.8-1.18-1.19-1.73-.38-.55-.74-1.04-1.06-1.48-.32-.43-.63-.78-.92-1.04s-.54-.4-.76-.4v-.32h5.36v.32c-.14,0-.18.29-.11.86.07.58.35,1.36.83,2.34l6.66,12.42,5.94-12.13c.07-.17.19-.44.34-.83.16-.38.28-.77.36-1.17s.08-.74,0-1.04c-.08-.3-.33-.45-.74-.45v-.32h3.1v.32c-.26,0-.64.3-1.13.9-.49.6-1.13,1.7-1.93,3.31l-5.76,11.77Z"/>
    <path d="M233.35,98.8c-.46-1.7-.56-3.4-.31-5.08.25-1.68.79-3.23,1.6-4.64.82-1.42,1.88-2.65,3.21-3.69,1.32-1.04,2.83-1.79,4.54-2.25,1.7-.46,3.4-.56,5.08-.32,1.68.24,3.23.77,4.64,1.58,1.42.82,2.65,1.89,3.69,3.22s1.79,2.85,2.25,4.55c.46,1.7.56,3.39.32,5.06-.24,1.67-.77,3.21-1.58,4.63-.82,1.42-1.89,2.65-3.22,3.71s-2.85,1.81-4.55,2.27c-1.7.46-3.39.56-5.06.32s-3.21-.77-4.63-1.6-2.65-1.9-3.71-3.22c-1.06-1.32-1.81-2.83-2.27-4.54ZM255.48,92.86c-.36-1.39-.95-2.75-1.78-4.07-.83-1.32-1.81-2.45-2.95-3.38s-2.42-1.6-3.83-2c-1.42-.4-2.89-.39-4.43.02-1.56.41-2.85,1.14-3.87,2.2-1.02,1.06-1.79,2.27-2.32,3.65-.53,1.38-.82,2.85-.86,4.41-.05,1.56.11,3.04.47,4.43.38,1.39.98,2.74,1.8,4.05.82,1.31,1.8,2.43,2.95,3.37,1.15.94,2.43,1.61,3.83,2.02,1.4.41,2.89.4,4.45-.04,1.54-.41,2.81-1.14,3.83-2.2,1.02-1.06,1.79-2.27,2.32-3.65.53-1.38.82-2.84.88-4.39.06-1.55-.1-3.02-.49-4.41Z"/>
    <path d="M282.3,99.91c0-.79-.12-1.42-.36-1.87-.24-.46-.54-.8-.9-1.03-.36-.23-.77-.38-1.22-.45-.46-.07-.91-.11-1.37-.11h-2.3v-.32h9.54v.32c-.19,0-.33.11-.41.32-.08.22-.14.49-.18.81-.04.32-.07.67-.09,1.03-.02.36-.07.68-.14.97-.43,1.94-1.24,3.56-2.43,4.86s-2.57,2.27-4.14,2.92c-1.57.65-3.25.95-5.02.92-1.78-.04-3.47-.4-5.08-1.1-1.61-.7-3.05-1.74-4.32-3.13-1.27-1.39-2.18-3.13-2.74-5.22-.46-1.7-.56-3.4-.32-5.08.24-1.68.77-3.23,1.58-4.64.82-1.42,1.89-2.65,3.22-3.69s2.85-1.79,4.55-2.25c1.22-.34,2.45-.48,3.67-.43,1.22.05,2.4.25,3.53.61,1.13.36,2.19.87,3.19,1.53,1,.66,1.88,1.45,2.65,2.36l-.86,3.17h-.32c-.55-1.1-1.24-2.15-2.05-3.15-.82-1-1.73-1.83-2.74-2.5s-2.1-1.14-3.28-1.4c-1.18-.26-2.41-.23-3.71.11-1.56.41-2.84,1.14-3.85,2.2-1.01,1.06-1.78,2.27-2.3,3.65-.53,1.38-.82,2.85-.88,4.41-.06,1.56.09,3.04.45,4.43.48,1.78,1.19,3.29,2.14,4.54.95,1.25,2.02,2.25,3.22,3.01,1.2.76,2.48,1.26,3.83,1.51,1.36.25,2.68.26,3.98.02,1.22-.26,2.2-.67,2.92-1.21s1.27-1.15,1.64-1.84.62-1.4.74-2.14c.12-.74.18-1.45.18-2.12Z"/>
    <path d="M298.83,103.44c-.26-.79-.62-1.57-1.06-2.32s-.97-1.43-1.57-2.03c-.6-.6-1.27-1.1-2.02-1.49-.74-.4-1.56-.64-2.45-.74-.34-.02-.68-.02-1.04.02-.36.04-.71.11-1.04.23s-.64.29-.92.5c-.28.22-.47.5-.59.86l-1.76,5.26c-.48,1.37-.71,2.39-.7,3.08s.26,1.03.74,1.03v.32h-3.06v-.32c.14,0,.31-.07.5-.2.19-.13.4-.36.63-.68.23-.32.47-.76.74-1.3.26-.54.54-1.22.83-2.03l6.41-18.76-.68-1.98h2.74l6.88,20.05c.24.67.47,1.31.7,1.91.23.6.44,1.12.65,1.57.2.44.39.79.56,1.04.17.25.32.38.47.38v.32h-4.21v-.32c.12,0,.16-.34.12-1.01-.04-.67-.22-1.51-.56-2.52l-.29-.86ZM288.53,97.39c.41-.38.91-.63,1.51-.74.6-.11,1.16-.14,1.69-.09,1.37.12,2.57.58,3.6,1.37,1.03.79,1.9,1.74,2.59,2.84l-5.29-15.41-4.1,12.02Z"/>
  </g>
</svg>