<?xml version="1.0" encoding="UTF-8"?>
<svg id="Lager_1" xmlns="http://www.w3.org/2000/svg" viewBox="0 0 358.31 470.93">
  <path d="M159.5,218.64c4.85-14.17,9.87-20.43,14.21-26.56,23.93-33.78-10.65-47.78-46.32-29.19l-.94-14.3-.63-14.11,50.22.94,97.62,2.18c-.06,4.31-2.02,14.53-3.18,20.17-.54,2.61-.6,5.3-.18,7.93l.66,4.17c.46,2.9,1.25,5.74,2.4,8.44,5.96,13.97,10.71,28.59,15.97,42.83,4.21,7.35,29.29,83.23,29.29,83.23,3.06-29.87,4.94-139.77,4.94-139.77l-44.51-.38c-.82-13.44-4.38-26.15,14.81-26.3,39.16,1.7,64.43.13,64.43.13-15.87,149.02-29.85,232.3-31.19,331.25-.03,2.06-7.41,2.21-7.66.24l-.09-3.15c-2.01-64.83-10.55-132.28-33.58-194.5-11-32.11-18.19-75.27-47.73-94.05-6.57-4.17-14.53-3.87-22.02-1.76-17.56,4.93-28.65,15.52-28.65,15.52l-14.31,12.65-13.57,14.38Z"/>
  <path d="M162.16,220.44l-1,.58,5.96-5.96,8.51-6.81c35.65-27.04,93.62,19.4,84.09,69.56-13.4,70.54-129.52,97.67-203.55,72.14-.09-.03-.17-.09-.25-.13C-41.02,293.45,95.27,90.63,16.68,49.03c-.28-.15-.59-.25-.9-.31C-4.89,44.88.26,43.19,1.41,23.65c.01-.21.05-.43.11-.63C3.52,16.07.36,2.58,8.08.16c.26-.08.53-.12.8-.13,14.67-.51,30.08,5.54,39.92,16.42,29.87,33.69,25.51,67.5,16.58,107.75-7.89,35.53-17.03,83.62-22.27,121.54-19.3,139.68,153.03,136.55,189.63,46.51,8.05-19.81,9.33-45.36-8.79-63.06-13.94-13.62-23.69-17.75-42.45-15.36-4.15.53-15.69,4.58-19.34,6.61Z"/>
  <path d="M332.36,32.33c.69,1.49-.21,2.72-.59,3.92-1.44,4.47-2.64,9.02-4.42,13.38-2.39,5.85-5.64,11.2-9.07,16.46-18.44,28.46-49.72,32.25-78.93,41.19-7.88,1.34-16.58,24.54-15.26,14.43,9.09-60.62,59.69-24.26,96.95-72.98,2.77-3.17,5.19-6.65,7.53-10.19,1.33-2.02,3-3.82,3.79-6.21h0Z"/>
  <path d="M209.35,10.8c.96.89,1.19,1.62.66,2.94-.51,1.28-.31,2.88-.54,4.33-.17,1.05-.27,2.13-.69,3.09-1.82,4.16-2.39,8.76-4.7,12.77-1.84,9.86-17.08,15.5-10.83,25.43,1.33,5.64,14.66,14.63,16.74,7.58-10.65-7.37-11.2,1.79-6.74-17.96,8.14-21.04,38.91,5.58,21.82,30.59-38.27,37.09-53.93-22.43-27.24-47.7,4.15-4.1,8.07-8.42,9.83-14.18.56-1.85.31-3.89,1.12-5.72.17-.38.15-.84.58-1.22v.02Z"/>
  <path d="M192.26,124.13c-5.23,1.65-4.97-26.93-27.8-29.34-38.95-.96-65.69-34.25-69.98-70.55,28.76,74.26,76.75,16.25,97.79,99.89Z"/>
  <path d="M80.57,181.15s8.32-24.78,20.57-16,121.93,118.07,43.05,179.38c-55.56,43.19-135.63,31.85-135.63,31.85,0,0,163.94-8.81,151.56-104.36-9.23-71.24-79.56-90.87-79.56-90.87Z"/>
</svg>