<?xml version="1.0" encoding="UTF-8"?>
<svg id="Lager_1" data-name="Lager 1" xmlns="http://www.w3.org/2000/svg" viewBox="0 0 473.36 467.6">
  <defs>
    <style>
      .cls-1 {
        fill: #e36400;
      }
    </style>
  </defs>
  <path class="cls-1" d="M140.52,307.57c.99.83,6.22,8.45,5.69,9.72-.44,1.03-13.84,12.62-16.28,15.43-13.25,15.23-27.16,41.74-42.54,53.24-3.05,2.28-15.41,10.27-18.49,11.49-1.33.53-2.47.85-3.93.65-.4-1.76.94-1.86,1.9-2.67,3.84-3.24,9.16-5.94,12.8-9.28,18.16-16.7,24.1-44.52,40.32-64.01,2.76-3.31,11.48-13.06,14.63-14.71,2.01-1.05,4.04-1.44,5.91.14Z"/>
  <path class="cls-1" d="M113.56,318.44c-12.34,11.57-23.32,25.56-36.53,36.34-9.56,7.81-21.97,15.85-34.55,16.66l6.39-4.84c28.84-11.75,38.52-43.9,60.22-63.04,2.24-1.98,16.94-13.09,18.63-12.81,1.97,1.68,8.26,9.93,8.09,11.97-.2,2.37-6.51,4.23-8.66,5.58-4.32,2.72-9.9,6.68-13.59,10.14Z"/>
  <path class="cls-1" d="M1.67,206.55c6.35.65,12.58,4.24,18.82,4.91,18.52,1.97,35.62-4.96,53.44-8.02,12.52-2.15,25.31-2.48,37.99-.96,1.75.21,5.8.96,6.17,2.92.18.99-2.82,13.43-3.63,13.6-2.56-.49-4.91-2.05-7.51-2.39-29.97-3.91-72.21,8.21-99.9-5.05-.84-.4-6.85-3.58-5.39-5.02Z"/>
  <path class="cls-1" d="M76.92,318.47c-4.35,3.09-8.35,7.13-12.89,10-10.71,6.78-25.48,14.19-38.23,13.43v-1.69c12.39-3.07,25.76-9.47,34.96-18.3,15.5-14.86,27.18-30.98,46.46-42.04,1.18-.67,10.88-4.54,11.78-4.63,4.36-.4,5.31,8.23,7.46,11l-.62,1.57c-18.08,7.16-33.25,19.54-48.93,30.67Z"/>
  <path class="cls-1" d="M158.59,59.61c13.24,14.84,35.3,33.69,40.24,54.29.46,1.93.33,4,.14,5.95l-12.33,3.34c-4.29-15.13-13.77-27.7-22.22-40.67s-16.23-22.47-22.29-36.85c-3.27-7.77-7-16.26-5.13-24.86,3.32,7.09,5.24,14.99,8.9,21.92,2.98,5.64,8.4,12.07,12.69,16.88Z"/>
  <path class="cls-1" d="M116.43,258.36c-.27,3.12,5.22,11.67,2.68,13.58-.41.31-8.7,1.19-10.07,1.59-13.66,4.04-29.96,15.03-43.36,21.61-16.91,8.3-34.66,17.13-54.04,16.34v-2.48c5.53-1.26,11.96-2.27,17.31-3.94,30.41-9.53,47.27-37.74,81.63-46.64,2.02-.52,3.9-1.42,5.83-.06Z"/>
  <path class="cls-1" d="M170.73,9.99c.85,13.4,6.22,25.86,13.36,37.03,8.17,12.8,19.46,24.61,25.37,38.76,1.62,3.89,9.22,27.34,6.59,29.23l-11.9,2.31c-1.74-6.15-3.12-12.41-5.28-18.44-8.95-24.93-25.61-48.75-28.94-75.1-.38-2.99-1.78-9.26-1.63-11.79.08-1.44,1.01-2.24,2.45-2.01Z"/>
  <path class="cls-1" d="M222.92,461.15c-.08.24-1.07.36-1.32.9-.81,1.79-.4,5.38-3.39,5.18,2.07-8.57,3.96-17.23,3.31-26.22-1.19-16.52-7.54-30.79-11.26-46.21-3.06-12.71-2.98-26.7-.36-39.55.25-1.22.9-2.52,2.21-2.82.48-.11,8.83.56,9.81.72,4.57.77,1.4,6.12,1.24,9.53-1.39,29.85,8.97,71.05-.25,98.47Z"/>
  <path class="cls-1" d="M272.34,1.66c-.27,2.68-2.37,4.71-3.11,7.29-8.77,30.75,8.6,58.16,4.67,89.63-.78,6.26-3.24,12.13-3.96,18.35-1.34,1.9-11.14-.93-13.46-1.63-.21-3.39,1.75-6.06,2.32-9.34,5.78-33.34-5.56-68.92,9.32-100.62.37-.78,3.18-4.77,4.22-3.68Z"/>
  <path class="cls-1" d="M473.06,244.02c-.61.64-2.91-1.3-3.91-1.49-14.97-2.89-24.35-3.55-39.21.43-22.13,5.93-37.62,15.68-62.22,12.71-2.25-.27-8.03-1.13-9.85-1.81-2.89-1.08-.76-12.6.78-13.11,2.1-.7,3.56,1.22,4.99,1.37,1.62.17,6.15.19,8.24.23,29.06.62,73.45-15.57,99.73-1.45,1.32.71,2.25,2.29,1.45,3.12Z"/>
  <path class="cls-1" d="M251.52,467.23c1.47-9.24,1.92-19.25-.23-28.5-5.71-24.56-23.59-46.2-23.13-71.81.02-1.38.87-2.82.91-4.24.08-2.6-2.01-5.54.36-7.9,1.15-1.14,13.02-2.31,13.53.39-2.23,6.94-.99,15.32.3,22.47,4.78,26.68,16.82,54.57,13.04,82.31-.22,1.64-1.87,9.45-4.78,7.29Z"/>
  <path class="cls-1" d="M334.47,333.49c17.24,15.39,39.93,26.63,56.99,42.53,6.22,5.8,13.13,13.65,14.98,22.08l-7.9-10c-21.56-20.26-51.82-26.09-74.73-44.97-2.45-2.02-10.75-10.08-11.9-12.5-.56-1.18-.75-2.15-.01-3.32.5-.79,8.85-7.77,9.9-7.44.84.26,4.73,6.19,5.93,7.46,2.13,2.27,4.45,4.11,6.75,6.17Z"/>
  <path class="cls-1" d="M276.48,347.32c1.23,7.66,4.62,14.67,8.05,21.54,14.35,28.75,32.69,47.65,35.62,81.9.11,1.33.91,2.08-.74,3.15-2.83-7.01-3.98-14.56-6.68-21.63-8.24-21.64-26.99-32.65-38.2-51.75-2.6-4.42-11.77-25.4-10.4-29.37l12.36-3.84Z"/>
  <path class="cls-1" d="M98.62,416.79c-2.04,1.63-7.32,7.56-8.67,2.56.89-1.28,2.73-1.17,3.79-2.09,22.77-19.83,22.95-38.33,33.54-64.7,4.93-12.29,12.15-21.93,20.54-32.01l.82-.52c1.44-.03,10.06,5.99,10.88,7.26.69,1.07.41,1.47-.04,2.49-1.08,2.43-8.84,9.06-11.22,12.12-19.52,25.09-22.18,52.89-49.65,74.89Z"/>
  <path class="cls-1" d="M203.22,3.33v13.74c0,16.61,18.21,41.99,24.53,57.92,2.73,6.89,6.77,23.09,7.19,30.36.16,2.72-1.48,5.1-.07,7.9l-13.32.84c.35-1.92-.65-3.78-.75-5.5-1.99-35.9-25.68-66.57-19.22-104.01.24-1.41-.5-1.41,1.64-1.25Z"/>
  <path class="cls-1" d="M114.06,239.91c.67,3.06.63,6.25,1.07,9.34.29,2.03,2.77,4.27.1,5.53-6.87-.89-13.05.43-19.63,1.98-28.73,6.8-58.8,24.88-89.39,21.46-.93-.1-2.65-.27-2.87-1.3-.84-4,10.79-1.16,12.69-1.38,25.97-3.02,40.21-19.02,62.54-27.49,4.37-1.66,33.43-10.13,35.5-8.13Z"/>
  <path class="cls-1" d="M149.92,454.74c-.65-.6,7.91-13.17,8.78-14.95,10-20.42,4.39-44.22,8.1-66.03,1.23-7.23,6.16-25.78,10.6-31.04,3.71-4.41,9.08,1.14,13.24,3.31-5.54,8.96-8.95,19.14-11.36,29.37-6.17,26.16-4.98,48.79-21.17,72.11-.98,1.41-6.55,8.72-8.18,7.22Z"/>
  <path class="cls-1" d="M184.06,463.06c.83-6.97,4.95-13.32,6.3-19.93,5.16-25.37-7.06-51.2-1.92-76.88.47-2.37,4.89-16.51,5.96-17.37,1.23-.98,11.26.67,12.19,1.29,2.44,1.62-1.54,7.18-2.16,9.59-6.52,25.57-3.27,83.07-17.68,101.42-.79,1-.97,2.27-2.69,1.88Z"/>
  <path class="cls-1" d="M0,243.18c-.02-4.26,7.02-.23,8.79-.03,35.7,3.98,66.94-25.29,103.27-20.82.69.09,1.49-.02,2.1.4l.66,1c.46,2.21-.03,12.2-2.02,12.7-18.58-2.96-37.03,4.2-55.12,7.38-8.94,1.57-19.93,3.03-28.95,3.53-9.7.54-19.61-1.15-28.72-4.17Z"/>
  <path class="cls-1" d="M395.61,57.47c-.43,4-5.37,4.59-7.91,6.66-27.79,22.67-27.59,64.46-55.33,87.92-1.17.99-3.52,2.28-5.03,1.64-1.23-.52-9.35-9.11-8.35-10.43,9.9-3.77,15.15-14.36,20.81-22.71,14.23-20.99,27.57-45.09,48.06-60.64l7.75-2.45Z"/>
  <path class="cls-1" d="M335.16,307.79c24.28,23.1,62.39,28.58,86.7,52.82l7.9,10.83c-1.42,1.26-7.99-6.16-9.6-7.47-27.48-22.33-63.86-19.57-89.52-42.07-9.04-7.93-2.93-8.88,2.93-16.24.71.57.95,1.51,1.6,2.12Z"/>
  <path class="cls-1" d="M131.23,429.4c-2.44,3.2-6.49,9.96-10.21,11.03-4.68,1.34.05-2.34.28-2.63,5.59-7.23,10.4-13.54,14.02-22.22,10.34-24.8,6.75-49.68,21.41-74.37.97-1.64,5.02-8.19,6.03-8.96,2.81-2.15,3.84,1.03,6.01,2.42,2.04,1.31,5.59,1.52,5.16,4.51-.3,2.12-6.81,9.82-8.52,13.22-13.42,26.6-14.4,51.06-34.19,77Z"/>
  <path class="cls-1" d="M235.71,0c1.51,0,.89,3.59.81,4.56-.3,3.56-1.76,7.23-1.72,10.84.26,29.77,19.61,53.12,19.25,83.33-.04,3-.61,15.24-3.75,15.85-3.78-.51-8.04.93-11.35-1.66l-.73-1.72c2.45-5.76,2.18-13.7,1.65-20-1.88-22.24-8.1-44.12-8.36-66.6C231.4,15.72,232.75,8.26,235.71,0Z"/>
  <path class="cls-1" d="M330.1,358.67c3.58,3.48,9.03,7.08,12.72,10.61,14.97,14.3,33.25,30.31,37.79,51.32-3.18-4.09-5.28-8.63-8.34-12.89-18.76-26.07-50.39-32.56-68.27-57.49-1.33-1.86-7.06-11.66-6.59-13.2,2.92-2.72,7.38-5.65,11.06-5.43,5.89,10.05,13.31,18.98,21.64,27.08Z"/>
  <path class="cls-1" d="M110.23,154.59c-22.8-10.83-51.31-17.22-69.96-35.79-.6-.6-4.18-4.96-3.62-5.53,2.78.4,4.11,3.32,6.38,4.86,27.19,18.49,56.44,14.33,83.31,28.3,2.78,1.45,14.54,9.11,15.16,11.57.36,1.4-5.51,9.31-6.57,9.85-3.49,1.79-7.82-4.34-10.55-6.14-4.5-2.95-9.45-4.89-14.15-7.12Z"/>
  <path class="cls-1" d="M466.4,174.07c.15,1.21-2.19,1.5-2.98,1.58-17.12,1.77-26.41,3.72-41.37,12.59-16.59,9.84-29.96,22.99-49.4,28.24-3.27.88-11.4,3.13-14.3,3.23-3.06.11-4.11-11.83-3.43-14.3l1.25-1.25c6.67.31,13.1-1.03,19.44-3.05,27.79-8.87,55.38-29.97,85.45-27.12l1.57-1.62,3.78,1.7Z"/>
  <path class="cls-1" d="M472.23,209.04c-4.86-.26-9.68-1.88-14.59-1.7-22.76.83-42.41,16.66-63.13,23.51-7.4,2.44-25.14,6.34-32.64,5.77s-4.52-14.84-3.19-15.13c1.95-.31,3.95.9,5.74.93,30.6.51,74.13-23.89,103.01-17.31.71.16,6.16,2.78,4.8,3.94Z"/>
  <path class="cls-1" d="M308.5,367.78c15.39,20.99,35.45,38.68,43.23,64.62.43,1.44,2.12,6.49.14,7.33-1.63.7-1.32-1.56-1.63-2.49-11.06-32.56-26.22-34.66-47.51-56.61-9.45-9.74-18.11-22-21.28-35.32l10.4-5.45c5.22,9.49,10.24,19.17,16.65,27.92Z"/>
  <path class="cls-1" d="M119.09,201.55c-2.6.22-4.2-2.02-6.65-2.91-28.14-10.26-80.78-2.85-103.21-22.55-.95-.83-2.06-1.27-1.73-2.84l14.96,6.27c31.06,8.72,61.56-3.35,92.81,5.47,2.66.75,7.89,2.08,8.46,4.84l-4.64,11.73Z"/>
  <path class="cls-1" d="M259.02,351.46c1.33,5.63,1.53,11.99,2.92,17.5,6.75,26.73,24.61,53.46,26.31,82.04.22,3.72-1.38,8.56-.08,12.9-2.52.41-1.33-.63-1.68-2.02-1.45-5.76-1.37-12.71-2.73-18.96-6.27-28.92-32.86-47.9-37.15-77.79-.35-2.43-1.59-11.16.48-11.85l11.93-1.81Z"/>
  <path class="cls-1" d="M419.76,81.62c1.77,1.68-8.33,5.31-9.42,5.98-29.01,17.64-33.15,48.82-56.36,70.24-2.23,2.06-11.69,9.96-13.96,10.28-3.07.43-10.05-10.27-7.79-12.88.66-.76,9.02-4.37,11.34-6.18,11.47-8.93,21.52-24.25,31.28-35.12,9.43-10.5,26.05-26.56,39.09-31.06,1.78-.62,3.96-.78,5.82-1.25Z"/>
  <path class="cls-1" d="M90.3,72.93c18.39,21.04,48.59,29.77,70.08,50.27,1.58,1.51,7.69,9.79,6.66,11.71-.25.47-7.48,6.88-7.96,7.1-1.01.47-1.47.68-2.5.01s-6.89-9.31-8.73-11.28c-18.4-19.77-49.78-36.92-63.03-59.4-2.2-3.73-3.61-7.98-5.7-11.79.47-.96,2.25,1.32,2.51,1.66,2.9,3.85,5.49,8.08,8.68,11.73Z"/>
  <path class="cls-1" d="M439.75,110.77c-4.42,3.63-10.43,4.65-15.55,7.35-25.79,13.58-34.58,40.06-55.66,55.11-6.23,4.45-13.72,6.82-20.37,10.49l-1.69-.89-5.84-11.26c.86-.01,1.86.08,2.65-.25,26.02-10.66,46.68-37.38,70.71-51.73,7.72-4.61,16.5-9.83,25.75-8.81Z"/>
  <path class="cls-1" d="M447.24,341.47l-21.35-12.37c-24.87-10.4-50.71-6.27-75.55-17.73-1.72-.8-13.31-6.83-13.73-7.5-1.57-2.48,5.42-12.5,6.81-12.29,16.71,13.08,38.42,16.09,58.01,22.84,12.07,4.16,26.43,9.86,36.6,17.54,1.2.91,10.37,8.28,9.23,9.51Z"/>
  <path class="cls-1" d="M469.73,278.17c-5.41-1.27-10.41-4.05-15.81-5.42-24.71-6.25-53.26,5.64-78.74,3.79-3.82-.28-20.32-3.25-22.64-5.25l-.73-1.86c1.86-2.74,1.63-6.78,2.76-9.39.45-1.04.05-1.06,1.46-1.07,2.51-.02,7.35,2.39,10.4,3,24.97,4.95,53.06-.24,77.67,4.78,4.33.88,21.2,6.1,24,8.48.9.76,1.88,1.6,1.63,2.95Z"/>
  <path class="cls-1" d="M129.73,170.92c3.26,3.16-2.97,13.24-5.08,13.05-4.56-2.9-9.6-5.24-14.73-6.98-26.6-9.01-56.73-10.86-80.7-25.91-1.43-.9-8.93-6.18-9.67-6.99-1.04-1.13-1.52-1.65-1.23-3.34,4.06-.03,6.32,4.08,9.37,6.03,24,15.35,56.38,8.94,83.94,16.84,6.26,1.79,12.08,4.93,18.1,7.3Z"/>
  <path class="cls-1" d="M365.63,38.31c-9.58,10.82-17.85,22.61-22.08,36.63-6.47,21.45-7.61,43.76-22.34,62.2-.8,1-5.44,4.67-6.64,4.36-.61-.16-9.66-6.8-8.81-8.49,14.33-15.49,20.21-36.17,29.45-54.74,5.51-11.07,13.37-26.6,21.86-34.92,2.21-2.16,5.3-5.52,8.56-5.03Z"/>
  <path class="cls-1" d="M454.75,141.59c.23,2.16,0,1.33-1.22,1.68-6.44,1.89-11.6,2.38-18.14,5.2-25.1,10.82-37.57,31.32-59.02,43.42-3.41,1.92-19.05,8.59-21.97,8.04-2.04-.38-4.68-7.78-5.09-10.01-.59-3.24,6.24-3.11,9.28-4.16,28.15-9.75,61.77-44.42,91.73-44.69,1.49-.01,2.93.64,4.44.52Z"/>
  <path class="cls-1" d="M328.39,26.89c.49-.45,1.69-.27,2.2-.7,1.42-1.19,1.53-4.04,5.47-5.36,1.08,3.13-3.67,6.24-5.28,8.88-12.02,19.68-11.33,37.91-14.41,59.71-2.16,15.29-5.9,28.25-14.85,40.98-1.07.7-9.15-3.31-10.03-4.21-2.32-2.41,3.9-9.59,5.15-12.34,9.07-19.92,18.04-74.21,31.74-86.95Z"/>
  <path class="cls-1" d="M460.57,311.48c-2.28.56-1.54-1.42-2.97-2.4-.87-.6-14.19-7.04-15.73-7.62-20.58-7.73-53.37-.97-78.24-6.71-2.71-.63-17.34-5.37-17.93-7.11-.19-2.32,2.75-11.33,4.65-11.88,6.07.96,11.14,5.12,17.05,6.89,23.34,6.96,75.29,7.85,91.79,25.65,1.01,1.09,1.85,1.04,1.38,3.19Z"/>
  <path class="cls-1" d="M64.44,92.96c21.95,21.34,54.12,21.92,77.99,41.53,1.49,1.23,8.71,7.76,9.5,8.82,3.44,4.62-4.19,9.33-7.84,11.23-19.33-22.32-49.09-31.71-71.81-49.66-3.5-2.76-13.2-13.07-15.14-16.69-.63-1.18-1.94-3.67-.93-4.9,2.41,3.54,5.17,6.7,8.22,9.67Z"/>
  <path class="cls-1" d="M154.61,90.26c6.68,5.61,16.41,14.49,21.48,21.4,1.73,2.36,8.42,12.51,7,14.81l-11.54,5.58c-2.68-4.38-4.96-9.66-7.78-13.9-10.82-16.28-27.99-30.47-40.02-46.6-7.37-9.87-15.98-21.4-16.3-34.07l10.47,19.91c9.31,13.94,24.22,22.39,36.69,32.87Z"/>
  <path class="cls-1" d="M275.06,119.71c-2.51-2.58,3.54-11.71,4.55-15.42,6.34-23.35,5.13-77.91,22.18-94.01.4-.38,2.91-2.1,3.03-1.96-.28,3.63-3.1,5.85-4.56,9.18-10.07,22.96-6.22,36.83-5.39,60.33.54,15.33-2.53,31.21-9.18,45.06-1.01.65-9.65-2.18-10.62-3.19Z"/>
</svg>